<svg width="10" height="13" viewBox="0 0 10 13" fill="none" xmlns="http://www.w3.org/2000/svg">
<path d="M8.99967 0.268677C9.16296 0.268698 9.32057 0.328648 9.44259 0.437154C9.56461 0.54566 9.64257 0.695176 9.66167 0.857343L9.66634 0.935343V11.602C9.66615 11.7719 9.60109 11.9354 9.48444 12.0589C9.3678 12.1825 9.20837 12.2568 9.03874 12.2668C8.86912 12.2767 8.70209 12.2216 8.57179 12.1125C8.44148 12.0034 8.35774 11.8487 8.33767 11.68L8.33301 11.602V8.26868H7.66634C7.50305 8.26865 7.34545 8.20871 7.22343 8.1002C7.1014 7.99169 7.02345 7.84218 7.00434 7.68001L6.99967 7.60201V3.60201C6.99967 2.12868 7.99967 0.268677 8.99967 0.268677ZM4.99967 0.268677C5.16296 0.268698 5.32057 0.328648 5.44259 0.437154C5.56461 0.54566 5.64257 0.695176 5.66167 0.857343L5.66634 0.935343V4.26868C5.66626 4.85992 5.46979 5.4344 5.10779 5.90186C4.74578 6.36933 4.23876 6.70331 3.66634 6.85134V11.602C3.66615 11.7719 3.60109 11.9354 3.48444 12.0589C3.3678 12.1825 3.20837 12.2568 3.03874 12.2668C2.86912 12.2767 2.70209 12.2216 2.57179 12.1125C2.44148 12.0034 2.35774 11.8487 2.33767 11.68L2.33301 11.602V6.85134C1.78331 6.70924 1.29328 6.39547 0.934184 5.95569C0.575088 5.5159 0.365655 4.97302 0.336341 4.40601L0.333008 4.26868V0.935343C0.333196 0.765424 0.39826 0.601989 0.514907 0.478431C0.631553 0.354874 0.790977 0.28052 0.960604 0.270562C1.13023 0.260604 1.29726 0.315793 1.42756 0.424853C1.55786 0.533913 1.64161 0.688613 1.66167 0.857343L1.66634 0.935343V4.26868C1.66635 4.50272 1.72796 4.73264 1.84498 4.93532C1.96201 5.13801 2.13032 5.30632 2.33301 5.42334V0.935343C2.3332 0.765424 2.39826 0.601989 2.51491 0.478431C2.63155 0.354874 2.79098 0.28052 2.9606 0.270562C3.13023 0.260604 3.29726 0.315793 3.42756 0.424853C3.55786 0.533913 3.64161 0.688613 3.66167 0.857343L3.66634 0.935343L3.66701 5.42334C3.85305 5.31581 4.01034 5.16489 4.12549 4.98347C4.24064 4.80204 4.31023 4.59546 4.32834 4.38134L4.33301 4.26868V0.935343C4.33301 0.758532 4.40325 0.588963 4.52827 0.463939C4.65329 0.338915 4.82286 0.268677 4.99967 0.268677Z" fill="#677A90"/>
</svg>
