<svg width="11" height="14" viewBox="0 0 11 14" fill="none" xmlns="http://www.w3.org/2000/svg">
<path d="M8.16594 3.60205C8.56377 3.60205 8.9453 3.44402 9.2266 3.16271C9.5079 2.88141 9.66594 2.49988 9.66594 2.10205C9.66594 1.70423 9.5079 1.3227 9.2266 1.04139C8.9453 0.760086 8.56377 0.602051 8.16594 0.602051C7.76812 0.602051 7.38659 0.760086 7.10528 1.04139C6.82398 1.3227 6.66594 1.70423 6.66594 2.10205C6.66594 2.49988 6.82398 2.88141 7.10528 3.16271C7.38659 3.44402 7.76812 3.60205 8.16594 3.60205ZM5.15261 5.02938C4.73694 5.13272 4.45327 5.28805 4.22427 5.48072C3.88094 5.77005 3.60361 6.18738 3.22894 6.84338C3.1412 6.9969 2.99607 7.10927 2.82547 7.15578C2.65487 7.20229 2.47279 7.17913 2.31927 7.09138C2.16576 7.00364 2.05338 6.85851 2.00688 6.68791C1.96037 6.51732 1.98353 6.33523 2.07127 6.18172C2.44427 5.52938 2.82127 4.91905 3.36561 4.46105C3.93361 3.98238 4.62894 3.71172 5.56661 3.60738C5.95861 3.56405 6.38994 3.57272 6.79427 3.75305C7.21861 3.94272 7.52861 4.28238 7.73994 4.73638C8.02461 5.34738 8.23627 5.71105 8.40561 5.92172C8.48727 6.02305 8.54427 6.07005 8.57661 6.09105C8.60227 6.10772 8.61327 6.10905 8.61727 6.10972H8.61761C8.64661 6.11305 8.74061 6.10972 9.01661 5.98738C9.13694 5.93405 9.26827 5.87005 9.42894 5.79172L9.46727 5.77305C9.66377 5.67609 9.86202 5.58274 10.0619 5.49305C10.2233 5.42219 10.4062 5.41814 10.5706 5.48178C10.735 5.54543 10.8675 5.67158 10.9391 5.83265C11.0107 5.99372 11.0156 6.17659 10.9527 6.34127C10.8899 6.50595 10.7643 6.63902 10.6036 6.71138C10.4184 6.79453 10.2347 6.8811 10.0526 6.97105L10.0089 6.99238C9.85527 7.06738 9.70061 7.14305 9.55561 7.20705C9.25561 7.33972 8.87227 7.48372 8.45661 7.43338C8.01794 7.38005 7.67994 7.13238 7.40161 6.80005L6.49061 8.55772L7.75061 10.1971C7.82561 10.2951 7.87194 10.4117 7.88494 10.5344L8.16227 13.1997C8.17284 13.2875 8.16583 13.3766 8.14164 13.4616C8.11746 13.5467 8.07658 13.6261 8.0214 13.6953C7.96622 13.7644 7.89784 13.8218 7.82024 13.8643C7.74263 13.9067 7.65736 13.9333 7.56939 13.9424C7.48142 13.9516 7.3925 13.9432 7.30782 13.9176C7.22315 13.8921 7.1444 13.8499 7.07617 13.7936C7.00793 13.7374 6.95159 13.6681 6.9104 13.5898C6.86921 13.5115 6.84402 13.4258 6.83627 13.3377L6.57827 10.8601L5.81294 9.86405L5.80627 9.87638L5.77827 9.81905L4.36427 7.97905C4.29476 7.88861 4.24962 7.78185 4.23316 7.66898C4.21671 7.55611 4.22948 7.44091 4.27027 7.33438L5.15261 5.02938Z" fill="#677A90"/>
<path d="M4.14352 8.93774L3.65285 10.2577L1.71952 10.1044C1.63162 10.0962 1.54298 10.1056 1.45873 10.132C1.37448 10.1584 1.29631 10.2012 1.22875 10.258C1.1612 10.3149 1.1056 10.3845 1.06518 10.463C1.02477 10.5415 1.00034 10.6272 0.993321 10.7152C0.986303 10.8032 0.996831 10.8917 1.02429 10.9756C1.05176 11.0595 1.09561 11.1371 1.15331 11.2039C1.21101 11.2708 1.2814 11.3254 1.3604 11.3648C1.4394 11.4042 1.52544 11.4275 1.61352 11.4334L4.04952 11.6267C4.19409 11.6382 4.33847 11.6023 4.46077 11.5243C4.58306 11.4464 4.6766 11.3307 4.72719 11.1947L5.10219 10.1854L4.14352 8.93774Z" fill="#677A90"/>
</svg>
